<svg width="128" height="128" viewBox="0 0 128 128" fill="none" xmlns="http://www.w3.org/2000/svg">
<path opacity="0.2" d="M64 112C90.5097 112 112 90.5097 112 64C112 37.4903 90.5097 16 64 16C37.4903 16 16 37.4903 16 64C16 90.5097 37.4903 112 64 112Z" fill="black"/>
<path d="M86 52L56.6665 80L42 66" stroke="black" stroke-width="2" stroke-linecap="round" stroke-linejoin="round"/>
<path d="M64 112C90.5097 112 112 90.5097 112 64C112 37.4903 90.5097 16 64 16C37.4903 16 16 37.4903 16 64C16 90.5097 37.4903 112 64 112Z" stroke="black" stroke-width="2" stroke-linecap="round" stroke-linejoin="round"/>
</svg>
